<svg width="336" height="75" xmlns="http://www.w3.org/2000/svg"><g fill="#FFF"><path d="M.31 7.51h12.13l39.84 66.57H39.49zm79.21 18.07L91.1 6.5l27.78 45.44h-12.8l-14.94-25.4-5.6 9.26zM59.18 6.66L39.59 38.35l6.03 10.28 13.56-22.27 15.09 25.58h12.78zM139.45.23h1.01v51.82h-1.01zM191 18a6.72 6.72 0 01-5.45 5.73 9.371 9.371 0 01-1.72.17 7.23 7.23 0 01-4.37-1.46 6.43 6.43 0 01-2.46-3.85c-.09-.44-.15-.91-.21-1.36v-.59a7.65 7.65 0 011.21-4.19 6.65 6.65 0 013.36-2.71 7.37 7.37 0 015.33 0 6.59 6.59 0 013.71 3.36 8.2 8.2 0 01.6 4.9m-6.27-10.33a9.2 9.2 0 00-4.05.54 8.34 8.34 0 00-3.68 2.63 8.8 8.8 0 00-1.75 4.16 10.69 10.69 0 00.13 3.91 8.15 8.15 0 001.85 3.7 8.55 8.55 0 005.9 2.86h.89a9.12 9.12 0 004.59-1.2 8 8 0 003.17-3.27 8.88 8.88 0 001-3.75 10.1 10.1 0 00-1.09-5.15 8.43 8.43 0 00-6.95-4.44"/><path d="M184 25.72h-.9a8.75 8.75 0 01-6-2.92 8.45 8.45 0 01-1.9-3.79 11 11 0 01-.13-4 8.93 8.93 0 011.82-4.27A8.49 8.49 0 01180.63 8a9.11 9.11 0 014.13-.55 8.61 8.61 0 017.1 4.53 10.31 10.31 0 011.14 5.28 9.1 9.1 0 01-1 3.84 8.18 8.18 0 01-3.24 3.38 9.32 9.32 0 01-4.76 1.24zm-.13-17.9a9.12 9.12 0 00-3.13.57 8.14 8.14 0 00-3.56 2.61 8.62 8.62 0 00-1.74 4.09 10.51 10.51 0 00.13 3.84 8 8 0 001.8 3.61 8.36 8.36 0 005.78 2.79h.87c1.577.008 3.13-.4 4.5-1.18a7.82 7.82 0 003.09-3.23 8.61 8.61 0 001-3.66 9.88 9.88 0 00-1.06-5.06 8.23 8.23 0 00-6.8-4.34c-.31-.02-.59-.04-.86-.04h-.02zm0 16.27a7.31 7.31 0 01-4.49-1.5 6.68 6.68 0 01-2.52-4c-.08-.37-.13-.76-.18-1.13v-.87a7.83 7.83 0 011.19-4.29 6.85 6.85 0 013.45-2.78 7.61 7.61 0 015.46 0 6.68 6.68 0 013.74 3.48 8.26 8.26 0 01.68 5 6.93 6.93 0 01-5.6 5.89 10.34 10.34 0 01-1.76.2h.03zM184 9.44a7.31 7.31 0 00-2.58.48 6.51 6.51 0 00-3.27 2.63 7.53 7.53 0 00-1.15 4.09V17a2.29 2.29 0 000 .25v.23c.05.37.1.75.18 1.11a6.24 6.24 0 002.37 3.73 6.94 6.94 0 004.26 1.43 9.681 9.681 0 001.69-.17 6.56 6.56 0 005.32-5.58 8 8 0 00-.64-4.78 6.37 6.37 0 00-3.61-3.26 7.49 7.49 0 00-2.57-.52zm21.82.09h2.83L203 23l-5.48-13.43h2.82V7.91h-7.17v1.62h2.51c.933 2.253 1.87 4.507 2.81 6.76l1.4 3.37 2.19 5.27a.56.56 0 00.55.39h.05a6.57 6.57 0 01.77 0A.53.53 0 00204 25c.13-.33.27-.65.41-1l1.35-3.21c1.56-3.747 3.127-7.497 4.7-11.25h2.37V7.91h-7l-.01 1.62z"/><path d="M202.73 25.52h-.06A.75.75 0 01202 25l-2.2-5.28-1.4-3.38-2.76-6.64H193v-2h7.55v2h-2.73L203 22.44l5.32-12.72h-2.74v-2H213v2h-2.43c-1 2.28-1.91 4.56-2.86 6.83l-3.14 7.51c-.14.32-.28.65-.41 1a.72.72 0 01-.71.49 6.22 6.22 0 00-.75 0l.03-.03zM195 9.34h.89l.05.11c.933 2.26 1.87 4.513 2.81 6.76l1.4 3.38 2.19 5.26a.36.36 0 00.37.28c.263-.02.527-.02.79 0a.33.33 0 00.34-.25c.13-.33.27-.65.41-1l3.15-7.51 2.9-6.95.05-.12h2.3V8.1H206v1.23h2.93L203 23.45l-5.77-14.12h2.91V8.1h-6.77v1.23l1.63.01zM170.26 1h-4.93v1.61h3.27v21.07h-3.34v1.64h8.4v-1.66h-3.4z"/><path d="M173.85 25.51h-8.78v-2h3.34V2.8h-3.27v-2h5.31v22.66h3.4v2.05zm-8.4-.39h8v-1.27h-3.39V1.2h-4.55v1.22h3.27v21.45h-3.34l.01 1.25zm64.73-12.53a7.31 7.31 0 00-4.26-4.19 10.25 10.25 0 00-2.71-.63 9.63 9.63 0 00-4 .36 8 8 0 00-4 2.78c-.16.22-.32.46-.46.68h2c.1-.11.19-.23.3-.34a6.26 6.26 0 013.38-1.76 8.86 8.86 0 015.2.53 5.42 5.42 0 013.3 4.16c.08.44.12.88.16 1.34v.32h-15.64a9.33 9.33 0 00.9 5.06 7.84 7.84 0 004.52 4c1.02.381 2.1.575 3.19.57.445 0 .89-.03 1.33-.09a9.72 9.72 0 004.61-1.77 6.57 6.57 0 001.58-1.61l.19-.26-1.26-.92-.19.22a2.34 2.34 0 00-.22.23 5.39 5.39 0 01-.39.43 7.3 7.3 0 01-2.59 1.55 8.66 8.66 0 01-4.58.41 6.45 6.45 0 01-3.15-1.51 7 7 0 01-2.31-4.73h15.59l.07-.94a9.26 9.26 0 00-.56-3.91"/><path d="M222.06 25.65a9.144 9.144 0 01-3.26-.58 8.07 8.07 0 01-4.62-4.07 9.48 9.48 0 01-.92-5.17v-.18H229v-.11c0-.45-.08-.89-.16-1.32a5.21 5.21 0 00-3.19-4 8.56 8.56 0 00-5.09-.52 6 6 0 00-3.27 1.71 1.45 1.45 0 00-.17.18l-.13.15-.06.07h-2.45l.19-.3c.15-.23.31-.47.47-.69a8.3 8.3 0 014.1-2.86 10.65 10.65 0 016.81.29 7.49 7.49 0 014.37 4.29 9.46 9.46 0 01.57 4l-.08 1.12H215.3a6.76 6.76 0 002.21 4.4 6.3 6.3 0 003.06 1.46 8.5 8.5 0 004.49-.4 7.21 7.21 0 002.52-1.51 4.61 4.61 0 00.36-.39l.19.07-.15-.12a1.51 1.51 0 01.21-.23l.29-.33 1.52 1.11-.31.42a6.72 6.72 0 01-1.61 1.63 10.13 10.13 0 01-4.71 1.8c-.46.05-.9.08-1.31.08zM213.63 16a9 9 0 00.9 4.79 7.67 7.67 0 004.4 3.88 8.893 8.893 0 003.13.55c.435 0 .869-.026 1.3-.08a9.57 9.57 0 004.53-1.72 6.42 6.42 0 001.53-1.55l.08-.11-1-.7-.08.08-.18.2v.06a4 4 0 01-.39.42 7.56 7.56 0 01-2.65 1.59 8.85 8.85 0 01-4.69.42 6.77 6.77 0 01-3.24-1.55 7.25 7.25 0 01-2.37-4.86v-.21h15.63l.05-.77a8.85 8.85 0 00-.54-3.82 7.13 7.13 0 00-4.16-4.08 10.09 10.09 0 00-2.65-.62 9.43 9.43 0 00-3.89.35 7.88 7.88 0 00-3.95 2.73l-.26.37h1.57l.06-.08.19-.21a6.48 6.48 0 013.49-1.81 9 9 0 015.31.55 5.59 5.59 0 013.41 4.3 12 12 0 01.17 1.36V16h-15.7zm-19.17 33.84v-8.1a9.35 9.35 0 00-.19-1.9 6.51 6.51 0 00-6.85-5.07 6.28 6.28 0 00-5.28 2.87 15.56 15.56 0 00-.75 1.41 5.92 5.92 0 00-5.64-4.2c-2.72-.21-4.94.64-6.3 3.29v-3h-4.15V36h3.09v14.6h-3.09v.93h7v-1h-2.84v-9.32a5.83 5.83 0 01.4-1.92 5.59 5.59 0 016.14-3.47 5.35 5.35 0 014.83 5c.13 3.19.05 6.4.08 9.6 0 0 0 .07-.1.17H178v.89h6.75v-.92h-2.82v-9.11c0-3.73 3-6.36 7.05-5.6a5.3 5.3 0 014.45 5.45v8.8c0 .14 0 .29-.06.49h-2.79v.89h6.94v-.93h-3l-.06-.71z"/><path d="M172.46 51.65h-7.27v-1.16h3.09V36.14h-3.09V35h4.36v2.7c1.3-2.22 3.32-3.19 6.2-3a6 6 0 015.65 4v-.11a9.84 9.84 0 01.58-1.07 6.4 6.4 0 015.38-2.93 6.61 6.61 0 017 5.16 9.45 9.45 0 01.19 1.93v8.7h3.05v1.17h-7.17v-1.06h2.81a.88.88 0 010-.17 1.65 1.65 0 000-.21v-8.8a5.18 5.18 0 00-4.3-5.31 7.14 7.14 0 00-1.36-.14 5.43 5.43 0 00-5.58 5.6v8.86a.45.45 0 000 .08v.06h2.83v1.14h-7v-1.11h2.87v-3.24c0-2.11 0-4.28-.07-6.42a5.2 5.2 0 00-4.63-4.89 6.07 6.07 0 00-.85-.06 5.36 5.36 0 00-5.15 3.44 5.94 5.94 0 00-.4 1.89v9.24h2.85l.01 1.2zm-7.05-.23h6.82v-.74h-2.83v-.11a1 1 0 010-.16 1.11 1.11 0 010-.17v-9.03a5.74 5.74 0 01.41-2 5.57 5.57 0 015.36-3.6c.294 0 .588.02.88.06a5.42 5.42 0 014.95 5.15c.09 2.14.09 4.32.08 6.43v3.18a.22.22 0 01-.06.14.58.58 0 000 .09h-2.77v.66h6.53v-.68h-2.81v-.1a1.3 1.3 0 000-.15.57.57 0 010-.12V41.5a5.64 5.64 0 015.78-5.84c.47 0 .938.043 1.4.13a5.4 5.4 0 014.54 5.56v8.8a1 1 0 010 .24v.36h-2.79v.67h6.72v-.71h-3.06v-8.96a7.87 7.87 0 00-.19-1.89 6.36 6.36 0 00-6.72-5 6.17 6.17 0 00-5.19 2.82 8.78 8.78 0 00-.57 1l-.18.35-.12.24-.08-.26a5.86 5.86 0 00-5.78-4.01c-2.94-.22-4.95.83-6.19 3.23l-.22.41v-3.43h-3.91v.71h3.1v14.79h-3.1v.71zm84.69-.91a1 1 0 01-.67-.32c-2-2.7-4-5.42-6-8.14 0 0 .06-.11.1-.14 2.133-1.9 4.267-3.793 6.4-5.68a1.13 1.13 0 01.59-.17h1.65v-1h-6v1h2.49l-8.39 7.32V28.25h-4.15v1h3.07v21.29h-3.09v1h7.05v-1h-2.88v-5.59a.51.51 0 01.15-.35c.74-.64 1.48-1.26 2.27-1.91l4.88 6.67c.47.65 1.1 1.23.86 2.17h4.27v-1h-2.58"/><path d="M243.23 51.61H236v-1.18h3V29.35h-3v-1.21h4.38v15c2.69-2.34 5.31-4.62 8-7H246V35h6.27v1.19h-1.77a.82.82 0 00-.51.14c-2.34 2.05-4.65 4.11-6.41 5.67a.16.16 0 000 .06l1.11 1.51c1.58 2.15 3.22 4.39 4.84 6.56a.92.92 0 00.59.28h2.69v1.19h-4.53v-.14a2 2 0 00-.61-1.77l-.23-.3c-1.58-2.17-3.18-4.35-4.81-6.57-.7.57-1.45 1.19-2.18 1.83a.39.39 0 00-.11.26v5.48h2.88l.01 1.22zm-7.05-.22H243v-.78h-2.88v-5.74a.57.57 0 01.2-.43c.76-.67 1.54-1.32 2.27-1.92l.09-.07.07.09c1.66 2.27 3.28 4.47 4.88 6.68.07.1.15.19.23.29a2.26 2.26 0 01.68 1.82h4v-.73h-2.47a1.11 1.11 0 01-.76-.36c-1.62-2.18-3.26-4.41-4.84-6.57l-1.2-1.63.06-.1a.42.42 0 01.09-.14c1.76-1.56 4.07-3.62 6.41-5.67a1 1 0 01.65-.2h1.55v-.74h-5.81V36h2.68l-.23.2c-2.81 2.46-5.55 4.86-8.39 7.33l-.18.16V28.37h-3.9v.75h3.07v21.54h-3.09v.73zm-28.44-.63c-4.37-.05-7.33-3.15-7.27-7.59.06-4.44 3.08-7.41 7.26-7.35 4.33.06 7.26 3.17 7.2 7.66-.06 4.28-3.05 7.32-7.19 7.28M214.9 39c-2.11-4.47-8.71-5.33-12.37-2.43a9 9 0 00-1.12 12.34 7.87 7.87 0 005.84 2.82 8.12 8.12 0 007.69-3.93v3.68H219v-.93h-3.1V36h3.1v-.9h-4.1V39z"/><path d="M207.72 51.86h-.47a7.94 7.94 0 01-5.93-2.86 8.76 8.76 0 01-1.93-6.55 8.59 8.59 0 013.07-6 8.44 8.44 0 015.23-1.71 7.93 7.93 0 017.09 3.76V35h4.37v1.16H216v14.29h3.14v1.15h-4.33v-3.41a8.14 8.14 0 01-7.09 3.67zm0-16.85a8.2 8.2 0 00-5.09 1.66 8.38 8.38 0 00-3 5.79 8.55 8.55 0 001.89 6.39 7.7 7.7 0 005.76 2.77 8 8 0 007.58-3.87l.21-.33v4h3.87v-.7h-3.13v-14.8h3.13v-.71H215v4.31l-.22-.46a7.6 7.6 0 00-7.09-4.06l.03.01zm.13 15.86h-.09a7.38 7.38 0 01-5.32-2.13 7.63 7.63 0 01-2-5.57c0-4.39 3-7.46 7.25-7.46h.12c4.43.06 7.37 3.18 7.31 7.77-.12 4.35-3.12 7.39-7.3 7.39h.03zm-.21-14.94c-4.08 0-7 3-7 7.24a7.43 7.43 0 002 5.41 7.12 7.12 0 005.17 2.06h.08c4.06 0 6.94-3 7-7.17.05-4.44-2.8-7.47-7.09-7.53l-.16-.01zm106.47 13.84v-8.55a6.34 6.34 0 00-2-4.75 7.71 7.71 0 00-9.46-.18 19.5 19.5 0 00-2.06 2.2v-3.36h-4.1v.93h3.07v14.52h-3.07v.92h7v-.94h-2.85a2.69 2.69 0 010-.29c0-2.74-.05-5.48 0-8.22.1-4.91 5.22-7.71 9.65-5.63A4.89 4.89 0 01313 41c.11 3.11.05 6.22.06 9.33a1.52 1.52 0 01-.06.27h-2.76v.94h7v-1h-3.14l.01-.77z"/><path d="M317.36 51.65h-7.22v-1.18h2.78a.41.41 0 000-.12v-2.81c0-2.15 0-4.36-.06-6.54a4.78 4.78 0 00-2.73-4.48 7 7 0 00-3-.68 6.29 6.29 0 00-6.46 6.21c-.05 1.87 0 3.77 0 5.6v2.62a.52.52 0 000 .11v.07h2.86v1.16h-7.22v-1.14h3.06V36.18h-3.06V35h4.33v3.17c.13-.15.26-.31.4-.46.438-.558.93-1.07 1.47-1.53a7.61 7.61 0 014.73-1.56 7.26 7.26 0 014.88 1.75 6.46 6.46 0 012 4.83c.05 2.18.05 4.4 0 6.55v2.68h3.14l.1 1.22zm-7-.23h6.78v-.74H314v-2.91c0-2.15 0-4.37-.05-6.55a6.19 6.19 0 00-2-4.66 7 7 0 00-4.73-1.69 7.38 7.38 0 00-4.59 1.51 11.94 11.94 0 00-1.44 1.49l-.6.69-.2.22v-3.54h-3.87V36h3.06v14.69h-3.07v.7h6.78v-.71h-2.84v-.25a1.37 1.37 0 010-.16v-8.23a6.51 6.51 0 016.69-6.43 7.43 7.43 0 013.12.7 5 5 0 012.87 4.69c.07 2.18.06 4.4.06 6.55v2.78a.65.65 0 010 .18 1 1 0 000 .12v.08h-2.74l-.09.71zM230 35.26a6.69 6.69 0 00-3.95 3.23v-3.35H222v.91h3.17V50.6h-2.91v.9h7v-.9h-3c0-3.27-.12-6.48 0-9.67a5.6 5.6 0 014.53-4.93 5.86 5.86 0 014 .57c.13-.28.26-.53.39-.81a6.56 6.56 0 00-5.12-.51"/><path d="M229.37 51.61h-7.26v-1.12H225V36.17h-3.17V35h4.34v3a6.63 6.63 0 013.8-2.93 6.74 6.74 0 015.21.52h.09l-.05.1c-.13.28-.25.53-.39.81l-.05.11-.1-.06a5.67 5.67 0 00-3.9-.56 5.45 5.45 0 00-4.4 4.82c-.11 2.2-.08 4.47-.06 6.66v2.89h3l.05 1.25zm-7-.23h6.8v-.67h-3V47.6c0-2.2-.05-4.47.05-6.68a5.7 5.7 0 014.58-5 5.9 5.9 0 013.95.53l.29-.61a6.57 6.57 0 00-8.82 2.72l-.21.37v-3.67h-3.89v.68h3.18v14.77h-2.92l-.01.67zm58.54-.79a6.72 6.72 0 01-1.73.21 2.59 2.59 0 01-2.79-2.53 12 12 0 01-.11-1.69V35.9h5.84v-.83h-5.86V30l-1 .11v5h-3.56V36h3.56v4.37c0 2.52 0 5 .09 7.56a3.48 3.48 0 002.13 3.51 6.5 6.5 0 005.48-.57c-.15-.28-.27-.51-.4-.78a15.19 15.19 0 01-1.65.55"/><path d="M279.49 51.88a5.81 5.81 0 01-2.05-.38c-1.41-.55-2.13-1.73-2.21-3.62-.08-1.89-.07-3.61-.07-5.38v-6.43h-3.56V35h3.55v-5h.1l.77-.09h.36v5h5.85V36h-5.84v10.56c0 .558.036 1.116.11 1.67a2.48 2.48 0 002.68 2.44h.15a6.83 6.83 0 001.55-.21 7.1 7.1 0 001.13-.37l.51-.18h.09l.18.34c.08.17.17.34.27.53l.06.1h-.11a7.69 7.69 0 01-3.52 1zm-7.68-16h3.56v6.66c0 1.76 0 3.59.08 5.37.08 1.78.74 2.91 2.06 3.41.637.25 1.316.375 2 .37a7.532 7.532 0 003.32-.88l-.23-.43-.08-.16-.41.15a9.76 9.76 0 01-1.16.37 6.93 6.93 0 01-1.76.22 2.73 2.73 0 01-2.9-2.64 13 13 0 01-.11-1.7V35.79H282v-.61h-5.85v-5H276l-.68.07v5h-3.55l.04.63zm18.32-.82h-4.19v.98h3.16v14.5h-3.25v.95h7.63v-1h-3.38l.03-15.43z"/><path d="M293.63 51.6h-7.87v-1.17H289V36.15h-3.16v-.24a2.3 2.3 0 010-.35v-.62h4.42v15.44h3.38l-.01 1.22zm-7.63-.23h7.41v-.76H290V35.17h-4v.73h3.18v14.75H286v.72zm-28.4-15.49a7.68 7.68 0 00-2.7 2.64h1.18a6.56 6.56 0 011.59-1.52c2.86-2 7.6-1.53 9.87.92a6.5 6.5 0 011.54 4.87h-15.39a8 8 0 004.25 7.9 9.25 9.25 0 008.1 0 6.85 6.85 0 002.96-2.37l-.71-.52a8.57 8.57 0 01-10 1.92c-2.08-1.17-3.8-4-3.59-6h15.38c.21-2.45-.12-4.67-1.81-6.47a9 9 0 00-10.6-1.37"/><path d="M261.87 51.7a9 9 0 01-4-1 8.07 8.07 0 01-4.31-8v-.11H269a6.35 6.35 0 00-1.54-4.59 8.07 8.07 0 00-9.73-.91 6.67 6.67 0 00-1.56 1.53h-1.47l.1-.17a7.86 7.86 0 012.75-2.68 8.62 8.62 0 014.39-1.14 8.8 8.8 0 016.34 2.53c1.52 1.62 2.09 3.65 1.85 6.56v.1h-15.39c-.14 1.94 1.52 4.68 3.55 5.82a7.23 7.23 0 003.55.85 8.34 8.34 0 006.34-2.75l.07-.08.09.07.71.52.09.06-.07.1a7 7 0 01-3 2.36 10.54 10.54 0 01-4.2.93zm-8.07-8.84a7.83 7.83 0 004.2 7.69 9.22 9.22 0 008 0 6.76 6.76 0 002.81-2.2l-.53-.4a8.62 8.62 0 01-6.45 2.75 7.49 7.49 0 01-3.67-.89c-2.12-1.19-3.86-4.12-3.64-6.13v-.1h15.38c.22-2.78-.34-4.72-1.8-6.27a8.53 8.53 0 00-6.17-2.46 8.32 8.32 0 00-4.27 1.15 7.6 7.6 0 00-2.55 2.42h.89a6.57 6.57 0 011.58-1.53 8.27 8.27 0 0110 .94 6.6 6.6 0 011.56 5v.1l-15.34-.07zM289.18 32a1 1 0 100-2 1 1 0 000 2"/><path d="M289.18 32.13a1.11 1.11 0 11-.02-2.22 1.11 1.11 0 01.02 2.22zm0-2a.88.88 0 10.87.88.87.87 0 00-.87-.86v-.02zM320.2 41.7a6.35 6.35 0 012.32-4.37 7.65 7.65 0 013.4-1.49l.37-.07a7.88 7.88 0 011.09-.08h.29a10.3 10.3 0 011.13.11l.55.09c.398.075.79.182 1.17.32h.06a6.61 6.61 0 014.26 6.55 7.89 7.89 0 01-.14 1.39c0 .17-.09.33-.14.5-.05.17-.09.29-.14.44a6.68 6.68 0 01-6 4.48 9.32 9.32 0 01-5.93-1.45 4.19 4.19 0 01-.34-.28 6.76 6.76 0 01-2-6.15m12.88 7l.25-.23a8 8 0 001.54-9.71 6.85 6.85 0 00-1-1.33c-.14-.17-.33-.29-.48-.44l1.74-2.14-.74-.51-1.7 2a7.81 7.81 0 00-1.46-.87h-.06a9.06 9.06 0 00-1.47-.49h-.11a8.66 8.66 0 00-1.6-.21 9.75 9.75 0 00-2.77.26l-.41.11-.27.07a8 8 0 00-.81.32h-.06a8.13 8.13 0 00-1.16.66h-.05a8 8 0 00-1.61 11.71 7.71 7.71 0 005.47 2.61c1.35.14 2.72.16 4.06.39a5.09 5.09 0 013.6 2.13 4.2 4.2 0 01-1.7 6.09 9.9 9.9 0 01-9.18.06 4.33 4.33 0 01-2.26-2.4 7.45 7.45 0 01-.3-1.8h-1a5.19 5.19 0 002.06 4.44 9.78 9.78 0 006.83 1.77 8.94 8.94 0 005.51-2.07 5.12 5.12 0 00-.52-7.88A17 17 0 00330.8 50a7.4 7.4 0 002-1c.11-.08.19-.19.3-.28"/><path d="M327.53 61.37a9.39 9.39 0 01-5.9-1.83 5.24 5.24 0 01-2.11-4.54v-.11h1.18v.1c0 .17 0 .34.06.52a4.7 4.7 0 00.23 1.26 4.25 4.25 0 002.21 2.34 9.81 9.81 0 009.07-.06 4.25 4.25 0 002.21-2.69 4 4 0 00-.55-3.24 4.88 4.88 0 00-3.51-2.12c-.85-.14-1.73-.21-2.58-.27-.48 0-1-.07-1.47-.12a7.79 7.79 0 01-5.55-2.61 7.92 7.92 0 01-1.8-6.21 8.21 8.21 0 013.39-5.63l.09-.06a9.35 9.35 0 011.18-.67h.08a7.18 7.18 0 01.81-.32h.28l.41-.11a9.62 9.62 0 012.79-.26 9 9 0 011.63.21h.1a8.36 8.36 0 011.51.5v.12l.05-.11c.476.223.93.487 1.36.79l1.7-2 .92.64-1.75 2.16.12.1c.107.082.207.172.3.27a7.4 7.4 0 011 1.35 8.14 8.14 0 01.9 5.07 8 8 0 01-2.47 4.75 1.14 1.14 0 00-.11.11l-.15.13-.12.12-.19.16a7.1 7.1 0 01-1.74.93l.62.27a9.27 9.27 0 011.85 1 5.11 5.11 0 012.17 4 5 5 0 01-1.64 4.08 9 9 0 01-5.58 2.11l-1-.13zm-7.79-6.25a5 5 0 002 4.24 9.18 9.18 0 005.77 1.78h1a8.75 8.75 0 005.44-2 4.79 4.79 0 001.57-3.89 4.94 4.94 0 00-2.08-3.81 8.82 8.82 0 00-1.81-.92c-.28-.12-.58-.24-.88-.38l-.25-.12.26-.09a7.39 7.39 0 001.95-1 1 1 0 00.15-.14l.15-.13c.046-.04.09-.084.13-.13l.12-.11a7.69 7.69 0 002.39-4.61 7.82 7.82 0 00-.88-5 7.37 7.37 0 00-.94-1.29 3.2 3.2 0 00-.27-.25 1.24 1.24 0 01-.21-.18l-.08-.07 1.73-2.19-.55-.38-1.63 1.94-.08.09a7.94 7.94 0 00-1.44-.86h-.07a7.59 7.59 0 00-1.44-.47h-.1a9.75 9.75 0 00-1.59-.21h-.48a9.45 9.45 0 00-2.26.27l-.41.11h-.26a6 6 0 00-.8.31h-.07a9.37 9.37 0 00-1.14.66 8 8 0 00-3.34 5.5 7.48 7.48 0 007.14 8.61c.49 0 1 .08 1.47.12.87.046 1.738.136 2.6.27a5.11 5.11 0 013.58 2.21 4.26 4.26 0 01.58 3.43 4.47 4.47 0 01-2.32 2.83 10 10 0 01-9.27.06 4.45 4.45 0 01-2.33-2.46 4.82 4.82 0 01-.25-1.32v-.41l-.8-.01zm7.86-5.37a9.66 9.66 0 01-5.14-1.52l-.14-.11-.22-.18a6.81 6.81 0 01-2-6.26 6.38 6.38 0 012.36-4.43 7.63 7.63 0 013.45-1.52 2.41 2.41 0 01.37-.07 9.18 9.18 0 011.11-.09h.29c.38 0 .73.05 1.15.1l.55.09c.403.09.8.204 1.19.34h.06a6.74 6.74 0 014.37 6.67 7.62 7.62 0 01-.14 1.41c0 .14-.07.28-.11.41v.1c0 .15-.09.29-.14.45a6.83 6.83 0 01-6.07 4.56 7.42 7.42 0 01-.94.05zm.07-14h-.29a8.6 8.6 0 00-1.08.08l-.3.17a7.55 7.55 0 00-3.36 1.47 6.24 6.24 0 00-2.28 4.29 6.62 6.62 0 001.94 6.06l.21.17.14.11a9.41 9.41 0 005 1.47c.276.017.554.017.83 0a6.58 6.58 0 005.88-4.41 3.59 3.59 0 00.14-.43v-.1a2.6 2.6 0 00.1-.4 7.22 7.22 0 00.15-1.36 6.5 6.5 0 00-4.19-6.44 6.84 6.84 0 00-1.18-.33 4.68 4.68 0 00-.54-.09 9.05 9.05 0 00-1.17-.22v-.04z"/></g></svg>