<svg width="107" height="108" fill="none" xmlns="http://www.w3.org/2000/svg"><path fill-rule="evenodd" clip-rule="evenodd" d="M54.542 0h1.75c.056 2.372.028 4.772.167 7.145h-1.528c.028-1.73-.056-3.433-.111-5.163-.723 1.841-1.862 3.488-2.779 5.246h-1.778c-.028-2.372-.028-4.744-.139-7.116h1.528c-.055 1.758.111 3.488.056 5.246.833-1.87 1.89-3.572 2.834-5.358zM42.817 1.033C44.345.78 45.873.474 47.4.223l1 5.694c.195-.028.584-.112.778-.14l.5 2.763c-.5.084-1 .14-1.472.223-.083-.474-.139-.949-.222-1.451-1.362.251-2.723.447-4.085.754.084.474.167.948.278 1.423-.5.084-1 .167-1.472.251a95.579 95.579 0 00-.473-2.763 7.34 7.34 0 00.834-.167c.667-1.842.083-3.852-.25-5.777zm1.667 1.032c.278 1.48.528 3.014.139 4.521.778-.14 1.528-.279 2.306-.418-.25-1.424-.528-2.903-.75-4.354-.584.084-1.14.167-1.695.251zm13.225 5.107L58.96.14c.5.083.973.167 1.473.25-.139.922-.305 1.87-.472 2.792.89.167 1.806.334 2.723.474.167-.921.333-1.842.5-2.79l1.5.25c-.416 2.345-.833 4.661-1.222 7.005-.5-.083-.973-.167-1.473-.25.167-1.006.334-2.01.528-3.015-.917-.167-1.806-.335-2.723-.474-.166 1.004-.36 2.009-.528 2.986-.555-.028-1.055-.112-1.556-.196zm8.808-5.525c1.417.362 2.834.753 4.251 1.144-.11.418-.222.865-.333 1.284-.917-.252-1.862-.503-2.779-.754l-1.5 5.61c-.5-.14-.972-.251-1.473-.391.612-2.316 1.223-4.605 1.834-6.893zm-28.535.641l1.417-.502c.778 2.26 1.473 4.521 2.195 6.782-.472.167-.945.307-1.445.474a88.552 88.552 0 00-.944-2.902c-.89.279-1.75.586-2.64.893.334.949.64 1.926.973 2.875-.473.167-.973.306-1.445.474-.75-2.26-1.445-4.521-2.195-6.782.472-.167.972-.307 1.444-.474.278.893.556 1.814.862 2.707.889-.28 1.75-.558 2.64-.837-.278-.921-.584-1.814-.862-2.708zm-9.92 4.159c1.057 2.12 2.168 4.242 3.224 6.363a248.313 248.313 0 003.834-1.954c-.194-.418-.416-.809-.611-1.2-.806.447-1.612.865-2.445 1.284-.278-.502-.528-1.005-.806-1.507.75-.39 1.5-.753 2.25-1.144-.194-.363-.36-.754-.555-1.117-.75.391-1.528.754-2.278 1.145-.223-.447-.417-.921-.64-1.368.806-.39 1.612-.781 2.418-1.2-.195-.39-.39-.81-.611-1.2-1.223.586-2.529 1.2-3.78 1.898zm44.651-1.814c-1.611.67-2.5 2.595-2.306 4.298.334 2.177 3.001 3.405 4.946 2.567 1.417-.725 2.223-2.4 2.167-3.963-.139-2.232-2.806-3.684-4.807-2.902zm1.056 1.032c1-.307 2.25.503 2.25 1.62.028 1.171-.555 2.4-1.5 3.069-1.139.782-2.862-.335-2.667-1.702.167-1.173.75-2.54 1.917-2.987zm2.806 7.675c1.25-2.01 2.501-4.019 3.751-6.056 1.084.782 2.501 1.228 3.196 2.456.555 1.144-.5 2.623-1.779 2.456.445.558.612 1.367.25 2.01-.416.976-1.694 1.172-2.584.809-1-.447-1.889-1.117-2.834-1.675zm4.418-4.242c-.305.502-.583.977-.889 1.48.39.195.75.418 1.14.558.472.027.722-.475.972-.782-.222-.586-.723-.949-1.223-1.256zm-2.5 4.047c.528.279 1.028.753 1.667.614.444-.168.75-.698.611-1.172-.278-.503-.834-.754-1.278-1.089-.334.558-.667 1.117-1 1.647zm-55.96-3.35c1.195-.641 2.279-1.757 3.724-1.702 1.39.084 2.278 1.703 1.778 2.959-.306.837-1.14 1.284-1.861 1.758.472.753.944 1.48 1.389 2.233-.445.279-.862.53-1.278.809-1.25-2.01-2.501-4.047-3.751-6.056zm1.918.196c.361.586.722 1.172 1.083 1.786.723-.307 1.529-1.116.89-1.897-.5-.81-1.418-.252-1.973.111zM16.81 14.43a943.405 943.405 0 014.584 5.47c.945-.865 2.14-1.535 2.835-2.68.805-1.34-.417-3.153-1.918-3.125-1.055-.028-1.834.81-2.611 1.423a28.837 28.837 0 00-.862-1.06c.806-.642 1.556-1.312 2.334-1.954-.278-.335-.583-.67-.861-1.005-1.167.95-2.306 1.982-3.501 2.93zm3.668 2.037c.444.53.86 1.06 1.305 1.563.612-.503 1.695-1.368.862-2.15-.667-.864-1.584.113-2.168.587zm61.377.28c1 .836 1.806 1.98 3.028 2.455 1.445.502 3.084-.921 2.806-2.4-.166-1.005-.972-1.647-1.667-2.289.612-.614 1.195-1.283 1.779-1.897a38.43 38.43 0 00-1.084-1.06c-1.612 1.702-3.223 3.46-4.862 5.19zm3.362-1.396c-.473.53-.945 1.032-1.445 1.563.555.53 1.389 1.45 2.167.67.89-.782-.111-1.675-.722-2.233zm-36.343-3.098c7.807-.837 15.865.502 22.895 3.99 8.03 3.908 14.753 10.466 18.838 18.448 3.973 7.647 5.446 16.55 4.279 25.062-1.223 9.098-5.53 17.75-12.059 24.169-6.39 6.363-14.865 10.55-23.784 11.721-7.835 1.06-15.976-.14-23.173-3.488C27.563 88.33 20.617 81.66 16.365 73.51c-4.112-7.842-5.612-17.024-4.306-25.788 1.389-9.572 6.223-18.587 13.42-25.005 6.446-5.833 14.754-9.573 23.395-10.466zm-.556 8.065c6.919-1.088 14.198.084 20.45 3.293 7.39 3.74 13.281 10.299 16.282 18.03 2.75 7.06 3.056 15.042.833 22.298-2.25 7.452-7.168 14.038-13.587 18.364-5.668 3.851-12.558 5.917-19.393 5.75-7.28-.057-14.504-2.68-20.256-7.173-6.39-4.968-10.947-12.308-12.503-20.29-1.417-7.144-.472-14.707 2.668-21.266 4.723-10.02 14.559-17.415 25.506-19.006zM91.08 15.63c.361.363.75.697 1.14 1.06-1.612 1.73-3.224 3.489-4.863 5.22-.361-.336-.75-.67-1.111-1.034 1.583-1.758 3.223-3.488 4.834-5.246zm2.445 2.567c.361.475.75.921 1.112 1.396a79.634 79.634 0 01-1.056 2.735c.945-.168 1.917-.307 2.89-.447.36.447.722.865 1.083 1.284-1.334.14-2.667.307-4 .474-.473 1.396-.946 2.791-1.39 4.215-.39-.475-.75-.921-1.14-1.368a56.313 56.313 0 011.084-3.042l-3.167.419c-.361-.447-.723-.865-1.084-1.312 1.473-.14 2.945-.335 4.418-.502a88.747 88.747 0 011.25-3.852zM9.558 23.722c-.333 1.73 1.89 3.042 3.306 2.093.445 1.005.89 2.01 1.334 3.042.361-.474.723-.976 1.084-1.45l-1.334-2.68c.111-.14.361-.447.472-.586.695.502 1.39 1.005 2.112 1.535.306-.419.584-.81.89-1.228a379.125 379.125 0 00-5.752-4.242c-.723 1.172-1.834 2.149-2.112 3.516zm1.361.028c.14.502.584.893 1.112.949.667-.14 1.028-.782 1.417-1.256a92.828 92.828 0 01-1.723-1.256c-.305.475-.778.95-.806 1.563zm-3.5 2.54c-.278.53-.556 1.032-.834 1.563 1.084 1.702 2.084 3.404 3.223 5.051-1.473-.92-3.056-1.647-4.584-2.512-.223.447-.473.893-.723 1.368a270.516 270.516 0 006.28 3.349c.277-.53.555-1.06.805-1.591-1.083-1.647-2-3.433-3.223-4.996a238.98 238.98 0 004.585 2.456c.222-.446.472-.893.694-1.311-2.028-1.145-4.14-2.233-6.223-3.377zm87.383 6.223c.14.503.334.977.556 1.452 1.028-.503 2.084-.977 3.112-1.48-.667 1.284-1.361 2.54-2.028 3.796.278.586.528 1.144.806 1.73.75-1.479 1.5-2.986 2.194-4.493 1.39.447 2.779.893 4.196 1.34-.25-.558-.5-1.089-.75-1.647-1.251-.335-2.501-.698-3.751-1.033.917-.418 1.806-.837 2.695-1.255a29.946 29.946 0 01-.639-1.368c-2.167.977-4.251 2.037-6.39 2.958zM37.815 30.03v9.265h20.367v8.038c-6.307-.558-13.282.418-18.172 4.772-3.667 3.154-5.279 8.205-5.029 12.95.084 4.074 1.723 8.205 4.89 10.828 3.39 2.847 7.891 3.935 12.198 4.186 5.224.224 10.475-.279 15.643-1.116.028-16.326 0-32.625 0-48.951-10.003.027-19.95.027-29.897.027zm9.586 27.545c-2.584 1.842-3.334 5.358-2.778 8.345.333 2.093 1.75 3.935 3.667 4.772 3.084 1.423 6.585 1.228 9.864.921.028-5.275 0-10.55 0-15.824-3.612-.363-7.64-.447-10.753 1.786zM3.556 34.327l-.5 1.424c1.806.642 3.64 1.228 5.474 1.898-.306.865-.611 1.73-.89 2.595-1.833-.614-3.639-1.256-5.473-1.87-.166.475-.333.921-.5 1.395 2.223.81 4.501 1.563 6.752 2.345a346.369 346.369 0 011.695-4.94c.444.168.889.307 1.333.474.167-.446.306-.865.473-1.311-.862-.307-1.75-.614-2.612-.921-.083.195-.222.586-.278.753-1.834-.614-3.64-1.228-5.474-1.842zm96.97 3.238c.834-.28 1.778-.363 2.64-.028 2.25.865 2.917 4.382 1 5.916-1.084.838-2.612 1.2-3.946.782-1.861-.67-2.667-3.07-1.945-4.856.417-.893 1.306-1.507 2.251-1.814zm.834 1.423c-1.278.168-2.779 1.423-2.056 2.819.61 1.423 2.472 1.2 3.612.614 1.055-.39 1.639-1.703 1.028-2.68-.5-.892-1.695-1.004-2.584-.753zM1.056 42.56c2.334.447 4.668.865 6.974 1.312-.334 1.284-.278 2.735-1 3.88-.862 1.311-3.14 1.004-3.696-.42-.389-.892-.055-1.87.084-2.79-.445-.084-.89-.168-1.362-.251-.194 1.004-.361 2.01-.556 3.014-.416-.084-.86-.14-1.306-.223.306-1.508.584-3.015.862-4.522zm3.529 2.233c-.056.502-.25 1.033-.14 1.563.112.53.723.698 1.195.67.806-.251.778-1.172.973-1.842-.667-.168-1.362-.28-2.028-.39zM99.22 46.3c2.362-.14 4.696-.418 7.058-.586.055.837.139 1.647.194 2.484-1.667.725-3.306 1.563-5.029 2.149 1.806.279 3.556.837 5.335 1.228.111.837.166 1.674.222 2.512-2.334.167-4.696.39-7.03.614-.083-.53-.138-1.061-.278-1.563 2.029-.056 4.029-.363 6.058-.475-2.056-.39-4.057-.977-6.085-1.451l-.167-1.423c1.862-.866 3.751-1.647 5.585-2.484-1.917.195-3.862.363-5.78.502L99.22 46.3zM.056 49.538c2.39.027 4.75.167 7.14.25-.027.503-.027 1.005-.055 1.48a319.785 319.785 0 01-5.168-.196c1.75.893 3.362 2.094 5.084 3.098-.027.586-.055 1.2-.11 1.786-2.307-.14-4.64-.14-6.947-.279v-1.45c1.723.027 3.473.083 5.196.195-1.778-.921-3.39-2.094-5.113-3.098-.027-.586-.027-1.172-.027-1.786zm99.748 6.418c2.334.307 4.695.586 7.057.893-.222 1.898-.472 3.768-.695 5.666-2.361-.251-4.695-.586-7.03-.837l.168-1.507c1.945.25 3.889.474 5.834.725.112-.893.223-1.786.334-2.707-1.945-.195-3.862-.502-5.807-.698.027-.53.083-1.032.139-1.535zm-93.914.95c.917-.112 1.806-.224 2.696-.336l.166 1.34c-.472.056-.944.14-1.445.223.223 1.703.417 3.433.64 5.163-2.334.335-4.696.586-7.03.893-.056-.502-.139-.976-.195-1.479 1.918-.279 3.835-.474 5.724-.725-.111-.921-.222-1.842-.333-2.735-1.917.195-3.835.502-5.752.67-.055-.503-.11-.977-.167-1.48 1.89-.195 3.78-.474 5.669-.67.055-.25.027-.67.027-.865zm93.163 6.809c-.694 1.088-.805 2.4-1.222 3.6 2.278.67 4.557 1.312 6.807 1.982.417-1.452.862-2.93 1.278-4.41-.416-.14-.833-.251-1.25-.39-.306.976-.583 1.98-.861 2.958-.445-.112-.889-.251-1.334-.363.278-.977.695-2.065.25-3.07-.695-1.312-2.806-1.619-3.668-.307zm.334 2.484c.194-.726.5-2.065 1.556-1.703 1.083.252.639 1.508.417 2.261a40.586 40.586 0 01-1.973-.558zm-94.275-.81c1.084-.279 2.334-.195 3.196.587 1.222 1.088 1.667 3.097.861 4.549-.834 1.34-2.556 1.981-4.084 1.786-2.418-.307-3.585-3.628-2.195-5.526.555-.726 1.361-1.172 2.222-1.395zm.39 1.535c-.779.224-1.64.67-1.973 1.48-.445 1.06.389 2.372 1.556 2.428 1 .028 2.056-.335 2.834-1.005.889-.726.639-2.26-.306-2.819-.667-.363-1.445-.279-2.112-.084zm91.162 3.629c.917.418 1.834.837 2.75 1.228-.36.837-.75 1.674-1.083 2.511-.945-.39-1.862-.837-2.806-1.2-.195.447-.39.921-.584 1.368 2.168.949 4.307 1.953 6.502 2.874.194-.446.389-.893.611-1.367-.833-.419-1.695-.782-2.556-1.172.361-.838.722-1.675 1.111-2.54.862.39 1.723.781 2.584 1.144.195-.474.417-.92.612-1.395-2.167-.95-4.335-1.926-6.474-2.875-.25.503-.472.977-.667 1.424zM9.308 72.562c.611.614 1.223 1.34 1.278 2.233.195 1.814-2.223 3.125-3.668 2.093-.833-.558-1.139-1.563-1.361-2.484l-1.167.586c.278 1.2.834 2.372 1.834 3.126 2.056 1.73 5.835 0 5.751-2.735.084-1.368-.694-2.54-1.556-3.517-.36.251-.75.475-1.111.698zm84.022 4.633c.945 1.73 1.75 3.516 2.806 5.163-1.445-.893-2.89-1.842-4.334-2.735-.278.418-.528.865-.806 1.284 2 1.255 4.029 2.54 6.03 3.767.305-.502.61-1.005.944-1.507-.973-1.758-1.834-3.544-2.862-5.275 1.417 1.005 2.917 1.898 4.418 2.791.25-.418.528-.837.806-1.256-2-1.283-4.03-2.54-6.03-3.795-.333.53-.667 1.06-.972 1.563zm-80.993 1.172c.75.586 1.5 1.312 1.611 2.316.167 1.396-1.223 2.484-2.5 2.596-1.362-.056-2.168-1.34-2.585-2.484-.36.223-.722.474-1.083.698.5 1.2 1.25 2.4 2.473 2.986 2.278 1.144 5.418-.977 5.112-3.544-.083-1.368-1-2.512-2.028-3.35-.334.252-.667.503-1 .782zm76.686 4.912c.667 1.87 1.25 3.767 2.056 5.582-1.306-1.145-2.612-2.233-3.917-3.35-.334.391-.667.782-.973 1.173 1.834 1.507 3.612 3.07 5.474 4.577.36-.447.75-.893 1.139-1.34-.723-1.87-1.334-3.768-2.112-5.61a76.92 76.92 0 003.974 3.377c.305-.39.638-.753.944-1.144a947.939 947.939 0 00-5.446-4.605c-.36.475-.75.921-1.139 1.34zm-77.159 4.298l2.973 3.488c.334-.279.695-.586 1.028-.865a81.08 81.08 0 01-1.973-2.372c.334-.28.695-.586 1.029-.865.666.753 1.305 1.758 2.389 1.87 1.417.167 2.834-1.312 2.334-2.735-.472-1.256-1.556-2.15-2.362-3.154-1.778 1.563-3.612 3.07-5.418 4.633zm3.946-1.368c.389.419.75.893 1.25 1.172.472.112.861-.25 1.14-.586.333-.781-.445-1.34-.834-1.898-.5.42-1.028.866-1.556 1.312zm77.853 5.22c.195-.085.584-.28.75-.364-.166-.977.584-1.925 1.612-1.814l.083-.92c-1.695-.336-3.25 1.506-2.445 3.097zm-17.338 2.79c-.139 2.177-.25 4.354-.305 6.558a434.242 434.242 0 00-2.529-5.079c-.5.251-.972.475-1.472.726 1.139 2.344 2.361 4.605 3.473 6.949a51.592 51.592 0 011.75-.893c.028-2.205.417-4.41.195-6.615.806 1.759 1.75 3.433 2.584 5.191.5-.251 1-.474 1.472-.725-1.167-2.317-2.306-4.633-3.528-6.921-.528.25-1.084.53-1.64.809zm-50.874 6c.472.279.917.586 1.39.865.5-.809 1-1.646 1.472-2.484.861.503 1.806 1.173 2.834.894 1.556-.252 2.445-2.289 1.528-3.6-.806-1.117-2.167-1.591-3.25-2.373a384.836 384.836 0 01-3.974 6.698zm4.723-4.716c-.389.67-.777 1.311-1.166 1.981.5.28 1.055.754 1.667.503.472-.14.75-.642.778-1.117-.056-.698-.75-1.005-1.279-1.367zm37.232 2.595l1.834-.502c.723 2.484 1.417 4.968 2.14 7.451-.528.14-1.056.307-1.556.447a317.498 317.498 0 01-1.556-5.498c-.306 2.149-1 4.242-1.5 6.363-.612.168-1.223.363-1.862.53-.695-2.483-1.473-4.967-2.112-7.48.5-.139 1.028-.306 1.556-.446.528 1.842 1.056 3.656 1.556 5.498.389-2.121.972-4.242 1.5-6.363zm-30.202.112c1.945-.726 4.501.279 5.168 2.316.417 1.786-.25 3.907-1.778 4.912-2.14 1.34-5.53-.112-5.78-2.707-.166-1.786.667-3.823 2.39-4.521zm.778 1.228c-1.14.753-1.611 2.26-1.556 3.572.084 1.507 2.167 2.233 3.195 1.172a4.478 4.478 0 001.223-3.181c-.028-1.34-1.723-2.317-2.862-1.563zm17.81 1.395c1.223-.893 2.806-1.032 4.251-.809.056.474.084.949.111 1.423-.972-.167-2.056-.279-2.945.279-1.611.949-1.472 3.74.223 4.549 1 .447 2.139.168 3.084-.251.055.475.11.949.194 1.424-1.306.446-2.806.697-4.112.167-2.64-1.033-3.056-5.135-.806-6.782zm-9.474.307c1.389-1.311 3.612-1.34 5.279-.586.11.447-.111.949-.14 1.396-.86-.363-1.805-.67-2.722-.391-1.862.446-2.473 3.237-1 4.437.86.754 2.084.698 3.14.503-.029.474-.056.921-.056 1.395-1.556.251-3.334.112-4.53-1.033-1.583-1.479-1.389-4.214.029-5.721z" fill="#fff"/></svg>