<svg xmlns="http://www.w3.org/2000/svg" viewBox="0 0 107 108"><path d="M69.7 37.5h-4.1L54 62.7v3.6h5.6l2.3-5.3h11.3l2.3 5.3h5.9v-3.5L69.7 37.5zm.9 17.5h-6.1l3.1-7.1 3 7.1zm-26.1-3.3l7.9-10.6v-3.6h-5.6l-8.3 11.4h-3V37.5h-7v28.8h7V55.2h3.1L47 66.3h5.9v-3.5zM15.8 37.5h-4.1L0 62.7v3.6h5.6L7.9 61h11.3l2.3 5.3h5.9v-3.5L15.8 37.5zM10.5 55l3.1-7.1 3.1 7.1h-6.2zm86.4-17.5H82.8v28.8h6.9v-9.1h7.4c4.8 0 9.9-2.6 9.9-9.8 0-7.3-5.5-9.9-10.1-9.9zm-7.2 6h6.7c1.9 0 3.6 1.8 3.6 3.9 0 2.1-1.7 3.9-3.9 3.9h-6.5v-7.8zm-87 32.2l-2.6-5v-.5h1.5L3.5 74l1.7-3.8h1.4v.5L3.3 78H1.8v-.5l.9-1.8zm4.9-5.5h3.5c1.4 0 2.2 1 2.2 2.5s-.8 2.4-2.2 2.4H9.2V78H7.6v-7.8zm3.2 3.6c.5 0 .9-.3.9-1.1 0-.7-.5-1.1-.9-1.1H9.2v2.1h1.6zm2.7 3.7l2.7-7.3h1.5l2.7 7.3v.5h-1.6l-.6-1.8h-2.7l-.6 1.8h-1.5v-.5zm4.3-2.6l-.8-2.5-.9 2.5h1.7zm3 1.7c1.1 0 1.4-.5 1.4-2.6v-3.7h5.1V78h-1.6v-6.4h-2v2.6c0 2.8-.9 3.8-2.8 3.8v-1.4z" fill="#fff"/></svg>