<svg width="500" height="168" fill="none" xmlns="http://www.w3.org/2000/svg"><path opacity=".05" d="M73.14 0c14.88 0 27.76 2.48 38.64 7.44 11.04 4.96 19.52 12 25.44 21.12 5.92 9.12 8.88 19.92 8.88 32.4 0 12.32-2.96 23.12-8.88 32.4-5.92 9.12-14.4 16.16-25.44 21.12-10.88 4.8-23.76 7.2-38.64 7.2H39.3V168H.42V0h72.72zm-2.16 90c11.68 0 20.56-2.48 26.64-7.44 6.08-5.12 9.12-12.32 9.12-21.6 0-9.44-3.04-16.64-9.12-21.6-6.08-5.12-14.96-7.68-26.64-7.68H39.3V90h31.68zM173.858 0h76.32c18.24 0 34.32 3.52 48.24 10.56 14.08 6.88 24.96 16.64 32.64 29.28 7.84 12.64 11.76 27.36 11.76 44.16 0 16.8-3.92 31.52-11.76 44.16-7.68 12.64-18.56 22.48-32.64 29.52-13.92 6.88-30 10.32-48.24 10.32h-76.32V0zm74.4 136.08c16.8 0 30.16-4.64 40.08-13.92 10.08-9.44 15.12-22.16 15.12-38.16 0-16-5.04-28.64-15.12-37.92-9.92-9.44-23.28-14.16-40.08-14.16h-35.52v104.16h35.52zM411.019 31.2v44.4h77.76v31.2h-77.76V168h-38.88V0h126.96v31.2h-88.08z" fill="#333"/></svg>