<svg width="27" height="18" fill="none" xmlns="http://www.w3.org/2000/svg"><path d="M25.781 2.813c.094.374.172.843.235 1.406.093.562.156 1.125.187 1.687.031.532.047 1.032.047 1.5.031.469.047.86.047 1.172V9c0 2.813-.172 4.89-.516 6.234a3.27 3.27 0 01-.843 1.407 3.25 3.25 0 01-1.454.843c-.593.157-1.718.282-3.375.375-1.656.063-3.172.11-4.547.141H13.5c-5.344 0-8.672-.172-9.984-.516-1.22-.343-1.985-1.093-2.297-2.25-.157-.593-.282-1.406-.375-2.437-.063-1.063-.11-1.953-.14-2.672V9c0-2.781.171-4.844.515-6.188a3.25 3.25 0 01.843-1.453A3.25 3.25 0 013.516.516C4.109.359 5.234.25 6.89.187 8.547.095 10.062.032 11.437 0H13.5c5.344 0 8.672.172 9.984.516a3.25 3.25 0 011.453.843c.407.407.688.891.844 1.454zm-14.906 10.03L17.578 9l-6.703-3.797v7.64z" fill="#fff"/></svg>